<?xml version="1.0" ?><!DOCTYPE svg  PUBLIC '-//W3C//DTD SVG 1.1//EN'  'http://www.w3.org/Graphics/SVG/1.1/DTD/svg11.dtd'><svg height="140px" id="Layer_1" style="enable-background:new 0 0 140 140;" version="1.1" viewBox="0 0 140 140" width="140px" xml:space="preserve" xmlns="http://www.w3.org/2000/svg" xmlns:xlink="http://www.w3.org/1999/xlink"><g><path d="M70,130c-33.084,0-60-26.917-60-60s26.916-60,60-60c33.083,0,60,26.917,60,60S103.084,130,70,130z" style="fill:#F2F2F2;"/><circle cx="70" cy="70" r="58.064" style="fill:#C1E2F3;"/><g><path d="M77.537,87.958c-5.143,0-10.029-2.33-13.25-6.274c-2.618,1.527-5.597,2.332-8.67,2.332    c-9.359,0-16.973-7.439-16.973-16.584c0-9.144,7.614-16.584,16.973-16.584c0.781,0,1.585,0.064,2.427,0.197    c-0.247-1.111-0.365-2.143-0.365-3.166c0-9.146,7.613-16.587,16.973-16.587c7.015,0,13.316,4.292,15.812,10.724    c5.8,2.785,9.524,8.576,9.524,14.866c0,4.666-2.061,9.108-5.67,12.276c0.106,0.694,0.192,1.435,0.192,2.219    C94.511,80.52,86.896,87.958,77.537,87.958z" style="fill:#006E34;"/><path d="M99.988,56.879c0-6.29-3.725-12.081-9.523-14.866c-2.495-6.431-8.915-10.724-15.93-10.724    c-0.264,0,0.101-0.007-0.899-0.008v77.427c1,0,1-0.433,1-0.968V87.717c1,0.048,0.692,0.107,0.994,0.139    c0.597,0.064,1.251,0.103,1.856,0.103c9.359,0,17-7.438,17-16.584c0-0.784-0.072-1.524-0.181-2.219    C97.917,65.988,99.988,61.545,99.988,56.879z" style="fill:#00592A;"/><g><path d="M99.988,56.879c0-6.29-3.725-12.081-9.523-14.866c-2.495-6.431-8.797-10.724-15.813-10.724     c-0.662,0-1.313,0.046-1.957,0.119c6.227,0.701,11.633,4.765,13.898,10.604c5.8,2.785,9.523,8.576,9.523,14.866     c0,4.666-2.059,9.108-5.67,12.276c0.108,0.694,0.193,1.435,0.193,2.219c0,8.509-6.596,15.534-15.053,16.47     c0.645,0.075,1.294,0.114,1.949,0.114c9.359,0,16.975-7.439,16.975-16.584c0-0.784-0.085-1.524-0.193-2.219     C97.929,65.988,99.988,61.545,99.988,56.879z" style="fill:#003318;"/></g><path d="M83.734,56.232c-0.358-0.399-1.07-0.429-1.469-0.072l-7.63,6.774V43.871    c0-0.535-0.465-0.968-1-0.968s-1,0.433-1,0.968v31.3l-16.673-9.564c-0.461-0.264-0.988-0.102-1.253,0.363    c-0.265,0.464-0.068,1.055,0.397,1.319l17.188,9.847c0.145,0.083,0.341,0.122,0.341,0.125v30.481c0,0.535,0.465,0.968,1,0.968    s1-0.433,1-0.968V65.338c1-0.033,0.429-0.093,0.563-0.214l8.412-7.524C84.007,57.241,84.091,56.629,83.734,56.232z" style="fill:#603813;"/></g></g></svg>